<mxfile host="app.diagrams.net" agent="Mozilla/5.0 (Windows NT 10.0; Win64; x64) AppleWebKit/537.36 (KHTML, like Gecko) Chrome/131.0.0.0 Safari/537.36" version="24.8.6">
  <diagram name="Страница — 1" id="iFtCCB1Lpac170aaKPpc">
    <mxGraphModel dx="1103" dy="594" grid="1" gridSize="10" guides="1" tooltips="1" connect="1" arrows="1" fold="1" page="1" pageScale="1" pageWidth="1169" pageHeight="827" math="0" shadow="0">
      <root>
        <mxCell id="0" />
        <mxCell id="1" parent="0" />
        <mxCell id="_VTtjqQ9TF57_BV2BsiT-55" value="" style="rounded=1;whiteSpace=wrap;html=1;fillColor=none;strokeWidth=5;strokeColor=#FFFF33;" parent="1" vertex="1">
          <mxGeometry x="120" y="2039" width="280" height="540" as="geometry" />
        </mxCell>
        <mxCell id="_VTtjqQ9TF57_BV2BsiT-54" value="" style="rounded=1;whiteSpace=wrap;html=1;strokeWidth=5;fillColor=none;strokeColor=#FFFF33;" parent="1" vertex="1">
          <mxGeometry x="430" y="1388" width="280" height="150" as="geometry" />
        </mxCell>
        <mxCell id="_VTtjqQ9TF57_BV2BsiT-13" value="" style="rounded=1;whiteSpace=wrap;html=1;strokeWidth=3;strokeColor=#00FF00;fillColor=none;" parent="1" vertex="1">
          <mxGeometry x="65" y="410" width="260" height="160" as="geometry" />
        </mxCell>
        <object placeholders="1" c4Name="Employee" c4Type="Person" c4Description="Employee of BAS world" label="&lt;font style=&quot;font-size: 16px&quot;&gt;&lt;b&gt;%c4Name%&lt;/b&gt;&lt;/font&gt;&lt;div&gt;[%c4Type%]&lt;/div&gt;&lt;br&gt;&lt;div&gt;&lt;font style=&quot;font-size: 11px&quot;&gt;&lt;font color=&quot;#cccccc&quot;&gt;%c4Description%&lt;/font&gt;&lt;/div&gt;" id="_VTtjqQ9TF57_BV2BsiT-1">
          <mxCell style="html=1;fontSize=11;dashed=0;whiteSpace=wrap;fillColor=#083F75;strokeColor=#06315C;fontColor=#ffffff;shape=mxgraph.c4.person2;align=center;metaEdit=1;points=[[0.5,0,0],[1,0.5,0],[1,0.75,0],[0.75,1,0],[0.5,1,0],[0.25,1,0],[0,0.75,0],[0,0.5,0]];resizable=0;" parent="1" vertex="1">
            <mxGeometry x="95" y="139" width="200" height="180" as="geometry" />
          </mxCell>
        </object>
        <object placeholders="1" c4Name="Visitor" c4Type="Person" c4Description="Visitor of BAS World website" label="&lt;font style=&quot;font-size: 16px&quot;&gt;&lt;b&gt;%c4Name%&lt;/b&gt;&lt;/font&gt;&lt;div&gt;[%c4Type%]&lt;/div&gt;&lt;br&gt;&lt;div&gt;&lt;font style=&quot;font-size: 11px&quot;&gt;&lt;font color=&quot;#cccccc&quot;&gt;%c4Description%&lt;/font&gt;&lt;/div&gt;" id="_VTtjqQ9TF57_BV2BsiT-2">
          <mxCell style="html=1;fontSize=11;dashed=0;whiteSpace=wrap;fillColor=#083F75;strokeColor=#06315C;fontColor=#ffffff;shape=mxgraph.c4.person2;align=center;metaEdit=1;points=[[0.5,0,0],[1,0.5,0],[1,0.75,0],[0.75,1,0],[0.5,1,0],[0.25,1,0],[0,0.75,0],[0,0.5,0]];resizable=0;" parent="1" vertex="1">
            <mxGeometry x="525" y="139" width="200" height="180" as="geometry" />
          </mxCell>
        </object>
        <object placeholders="1" c4Name="Event dashboard" c4Type="Software System" c4Description="Allows employees to see all the events happened on BAS World website" label="&lt;font style=&quot;font-size: 16px&quot;&gt;&lt;b&gt;%c4Name%&lt;/b&gt;&lt;/font&gt;&lt;div&gt;[%c4Type%]&lt;/div&gt;&lt;br&gt;&lt;div&gt;&lt;font style=&quot;font-size: 11px&quot;&gt;&lt;font color=&quot;#cccccc&quot;&gt;%c4Description%&lt;/font&gt;&lt;/div&gt;" id="_VTtjqQ9TF57_BV2BsiT-3">
          <mxCell style="rounded=1;whiteSpace=wrap;html=1;labelBackgroundColor=none;fillColor=#1061B0;fontColor=#ffffff;align=center;arcSize=10;strokeColor=#0D5091;metaEdit=1;resizable=0;points=[[0.25,0,0],[0.5,0,0],[0.75,0,0],[1,0.25,0],[1,0.5,0],[1,0.75,0],[0.75,1,0],[0.5,1,0],[0.25,1,0],[0,0.75,0],[0,0.5,0],[0,0.25,0]];" parent="1" vertex="1">
            <mxGeometry x="75" y="429" width="240" height="120" as="geometry" />
          </mxCell>
        </object>
        <object placeholders="1" c4Name="BAS World website" c4Type="Software System" c4Description="The main website of BAS World" label="&lt;font style=&quot;font-size: 16px&quot;&gt;&lt;b&gt;%c4Name%&lt;/b&gt;&lt;/font&gt;&lt;div&gt;[%c4Type%]&lt;/div&gt;&lt;br&gt;&lt;div&gt;&lt;font style=&quot;font-size: 11px&quot;&gt;&lt;font color=&quot;#cccccc&quot;&gt;%c4Description%&lt;/font&gt;&lt;/div&gt;" id="_VTtjqQ9TF57_BV2BsiT-5">
          <mxCell style="rounded=1;whiteSpace=wrap;html=1;labelBackgroundColor=none;fillColor=#8C8496;fontColor=#ffffff;align=center;arcSize=10;strokeColor=#736782;metaEdit=1;resizable=0;points=[[0.25,0,0],[0.5,0,0],[0.75,0,0],[1,0.25,0],[1,0.5,0],[1,0.75,0],[0.75,1,0],[0.5,1,0],[0.25,1,0],[0,0.75,0],[0,0.5,0],[0,0.25,0]];" parent="1" vertex="1">
            <mxGeometry x="505" y="429" width="240" height="120" as="geometry" />
          </mxCell>
        </object>
        <mxCell id="_VTtjqQ9TF57_BV2BsiT-7" value="" style="endArrow=classic;html=1;rounded=0;dashed=1;exitX=0.5;exitY=1;exitDx=0;exitDy=0;exitPerimeter=0;entryX=0.5;entryY=0;entryDx=0;entryDy=0;entryPerimeter=0;" parent="1" source="_VTtjqQ9TF57_BV2BsiT-1" target="_VTtjqQ9TF57_BV2BsiT-3" edge="1">
          <mxGeometry width="50" height="50" relative="1" as="geometry">
            <mxPoint x="-145" y="209" as="sourcePoint" />
            <mxPoint x="-95" y="159" as="targetPoint" />
          </mxGeometry>
        </mxCell>
        <mxCell id="_VTtjqQ9TF57_BV2BsiT-9" value="&lt;font style=&quot;font-size: 14px;&quot;&gt;Views events using&lt;/font&gt;" style="edgeLabel;html=1;align=center;verticalAlign=middle;resizable=0;points=[];" parent="_VTtjqQ9TF57_BV2BsiT-7" vertex="1" connectable="0">
          <mxGeometry x="0.1273" y="1" relative="1" as="geometry">
            <mxPoint as="offset" />
          </mxGeometry>
        </mxCell>
        <mxCell id="_VTtjqQ9TF57_BV2BsiT-8" value="" style="endArrow=classic;html=1;rounded=0;dashed=1;exitX=0.5;exitY=1;exitDx=0;exitDy=0;exitPerimeter=0;entryX=0.5;entryY=0;entryDx=0;entryDy=0;entryPerimeter=0;" parent="1" source="_VTtjqQ9TF57_BV2BsiT-2" target="_VTtjqQ9TF57_BV2BsiT-5" edge="1">
          <mxGeometry width="50" height="50" relative="1" as="geometry">
            <mxPoint x="-75" y="179" as="sourcePoint" />
            <mxPoint x="-25" y="129" as="targetPoint" />
          </mxGeometry>
        </mxCell>
        <mxCell id="_VTtjqQ9TF57_BV2BsiT-10" value="&lt;font style=&quot;font-size: 14px;&quot;&gt;Does naughty stuff on&lt;/font&gt;" style="edgeLabel;html=1;align=center;verticalAlign=middle;resizable=0;points=[];" parent="_VTtjqQ9TF57_BV2BsiT-8" vertex="1" connectable="0">
          <mxGeometry x="-0.0727" y="3" relative="1" as="geometry">
            <mxPoint x="-3" y="9" as="offset" />
          </mxGeometry>
        </mxCell>
        <mxCell id="_VTtjqQ9TF57_BV2BsiT-11" value="" style="endArrow=classic;html=1;rounded=0;exitX=1;exitY=0.5;exitDx=0;exitDy=0;exitPerimeter=0;entryX=0;entryY=0.5;entryDx=0;entryDy=0;entryPerimeter=0;dashed=1;" parent="1" source="_VTtjqQ9TF57_BV2BsiT-3" target="_VTtjqQ9TF57_BV2BsiT-5" edge="1">
          <mxGeometry width="50" height="50" relative="1" as="geometry">
            <mxPoint x="345" y="799" as="sourcePoint" />
            <mxPoint x="395" y="749" as="targetPoint" />
          </mxGeometry>
        </mxCell>
        <mxCell id="_VTtjqQ9TF57_BV2BsiT-12" value="&lt;font style=&quot;font-size: 14px;&quot;&gt;Gets events from&lt;/font&gt;" style="edgeLabel;html=1;align=center;verticalAlign=middle;resizable=0;points=[];" parent="_VTtjqQ9TF57_BV2BsiT-11" vertex="1" connectable="0">
          <mxGeometry x="-0.2632" y="-2" relative="1" as="geometry">
            <mxPoint x="25" y="-2" as="offset" />
          </mxGeometry>
        </mxCell>
        <mxCell id="_VTtjqQ9TF57_BV2BsiT-17" value="" style="endArrow=classic;html=1;rounded=0;exitX=0.5;exitY=1;exitDx=0;exitDy=0;entryX=0.25;entryY=0;entryDx=0;entryDy=0;dashed=1;" parent="1" edge="1">
          <mxGeometry width="50" height="50" relative="1" as="geometry">
            <mxPoint x="195" y="569" as="sourcePoint" />
            <mxPoint x="195" y="1119" as="targetPoint" />
          </mxGeometry>
        </mxCell>
        <mxCell id="_VTtjqQ9TF57_BV2BsiT-18" value="" style="rounded=1;whiteSpace=wrap;html=1;strokeWidth=3;strokeColor=#00FF00;fillColor=none;" parent="1" vertex="1">
          <mxGeometry x="20" y="1120" width="720" height="430" as="geometry" />
        </mxCell>
        <object placeholders="1" c4Name="Employee" c4Type="Person" c4Description="Employee of BAS world" label="&lt;font style=&quot;font-size: 16px&quot;&gt;&lt;b&gt;%c4Name%&lt;/b&gt;&lt;/font&gt;&lt;div&gt;[%c4Type%]&lt;/div&gt;&lt;br&gt;&lt;div&gt;&lt;font style=&quot;font-size: 11px&quot;&gt;&lt;font color=&quot;#cccccc&quot;&gt;%c4Description%&lt;/font&gt;&lt;/div&gt;" id="_VTtjqQ9TF57_BV2BsiT-19">
          <mxCell style="html=1;fontSize=11;dashed=0;whiteSpace=wrap;fillColor=#083F75;strokeColor=#06315C;fontColor=#ffffff;shape=mxgraph.c4.person2;align=center;metaEdit=1;points=[[0.5,0,0],[1,0.5,0],[1,0.75,0],[0.75,1,0],[0.5,1,0],[0.25,1,0],[0,0.75,0],[0,0.5,0]];resizable=0;" parent="1" vertex="1">
            <mxGeometry x="270" y="769" width="200" height="180" as="geometry" />
          </mxCell>
        </object>
        <object placeholders="1" c4Name="Visitor" c4Type="Person" c4Description="Visitor of BAS World website" label="&lt;font style=&quot;font-size: 16px&quot;&gt;&lt;b&gt;%c4Name%&lt;/b&gt;&lt;/font&gt;&lt;div&gt;[%c4Type%]&lt;/div&gt;&lt;br&gt;&lt;div&gt;&lt;font style=&quot;font-size: 11px&quot;&gt;&lt;font color=&quot;#cccccc&quot;&gt;%c4Description%&lt;/font&gt;&lt;/div&gt;" id="_VTtjqQ9TF57_BV2BsiT-20">
          <mxCell style="html=1;fontSize=11;dashed=0;whiteSpace=wrap;fillColor=#083F75;strokeColor=#06315C;fontColor=#ffffff;shape=mxgraph.c4.person2;align=center;metaEdit=1;points=[[0.5,0,0],[1,0.5,0],[1,0.75,0],[0.75,1,0],[0.5,1,0],[0.25,1,0],[0,0.75,0],[0,0.5,0]];resizable=0;" parent="1" vertex="1">
            <mxGeometry x="567" y="1990" width="200" height="180" as="geometry" />
          </mxCell>
        </object>
        <object placeholders="1" c4Name="BAS World website" c4Type="Software System" c4Description="The main website of BAS World" label="&lt;font style=&quot;font-size: 16px&quot;&gt;&lt;b&gt;%c4Name%&lt;/b&gt;&lt;/font&gt;&lt;div&gt;[%c4Type%]&lt;/div&gt;&lt;br&gt;&lt;div&gt;&lt;font style=&quot;font-size: 11px&quot;&gt;&lt;font color=&quot;#cccccc&quot;&gt;%c4Description%&lt;/font&gt;&lt;/div&gt;" id="_VTtjqQ9TF57_BV2BsiT-22">
          <mxCell style="rounded=1;whiteSpace=wrap;html=1;labelBackgroundColor=none;fillColor=#8C8496;fontColor=#ffffff;align=center;arcSize=10;strokeColor=#736782;metaEdit=1;resizable=0;points=[[0.25,0,0],[0.5,0,0],[0.75,0,0],[1,0.25,0],[1,0.5,0],[1,0.75,0],[0.75,1,0],[0.5,1,0],[0.25,1,0],[0,0.75,0],[0,0.5,0],[0,0.25,0]];" parent="1" vertex="1">
            <mxGeometry x="547" y="1700" width="240" height="120" as="geometry" />
          </mxCell>
        </object>
        <mxCell id="_VTtjqQ9TF57_BV2BsiT-25" value="" style="endArrow=classic;html=1;rounded=0;dashed=1;exitX=0.5;exitY=0;exitDx=0;exitDy=0;exitPerimeter=0;entryX=0.5;entryY=1;entryDx=0;entryDy=0;entryPerimeter=0;" parent="1" source="_VTtjqQ9TF57_BV2BsiT-20" edge="1" target="_VTtjqQ9TF57_BV2BsiT-22">
          <mxGeometry width="50" height="50" relative="1" as="geometry">
            <mxPoint x="490" y="999" as="sourcePoint" />
            <mxPoint x="1020" y="1402" as="targetPoint" />
          </mxGeometry>
        </mxCell>
        <mxCell id="_VTtjqQ9TF57_BV2BsiT-26" value="&lt;font style=&quot;font-size: 14px;&quot;&gt;Does naughty stuff on&lt;/font&gt;" style="edgeLabel;html=1;align=center;verticalAlign=middle;resizable=0;points=[];" parent="_VTtjqQ9TF57_BV2BsiT-25" vertex="1" connectable="0">
          <mxGeometry x="-0.0727" y="3" relative="1" as="geometry">
            <mxPoint x="-3" y="9" as="offset" />
          </mxGeometry>
        </mxCell>
        <mxCell id="_VTtjqQ9TF57_BV2BsiT-27" value="" style="endArrow=classic;html=1;rounded=0;entryX=0.5;entryY=0;entryDx=0;entryDy=0;entryPerimeter=0;dashed=1;exitX=0.901;exitY=1.002;exitDx=0;exitDy=0;exitPerimeter=0;" parent="1" source="_VTtjqQ9TF57_BV2BsiT-31" edge="1" target="_VTtjqQ9TF57_BV2BsiT-22">
          <mxGeometry width="50" height="50" relative="1" as="geometry">
            <mxPoint x="1230" y="1309" as="sourcePoint" />
            <mxPoint x="900" y="1462" as="targetPoint" />
          </mxGeometry>
        </mxCell>
        <mxCell id="_VTtjqQ9TF57_BV2BsiT-28" value="&lt;font style=&quot;font-size: 14px;&quot;&gt;Gets events from&lt;/font&gt;" style="edgeLabel;html=1;align=center;verticalAlign=middle;resizable=0;points=[];" parent="_VTtjqQ9TF57_BV2BsiT-27" vertex="1" connectable="0">
          <mxGeometry x="-0.2632" y="-2" relative="1" as="geometry">
            <mxPoint x="25" y="-2" as="offset" />
          </mxGeometry>
        </mxCell>
        <object placeholders="1" c4Name="Single page application" c4Type="Container" c4Technology="JavaScript and React" c4Description="Provides all of the platform functionality to customers via their browser " label="&lt;font style=&quot;font-size: 16px&quot;&gt;&lt;b&gt;%c4Name%&lt;/b&gt;&lt;/font&gt;&lt;div&gt;[%c4Type%:&amp;nbsp;%c4Technology%]&lt;/div&gt;&lt;br&gt;&lt;div&gt;&lt;font style=&quot;font-size: 11px&quot;&gt;&lt;font color=&quot;#E6E6E6&quot;&gt;%c4Description%&lt;/font&gt;&lt;/div&gt;" id="_VTtjqQ9TF57_BV2BsiT-30">
          <mxCell style="shape=mxgraph.c4.webBrowserContainer2;whiteSpace=wrap;html=1;boundedLbl=1;rounded=0;labelBackgroundColor=none;strokeColor=#118ACD;fillColor=#23A2D9;strokeColor=#118ACD;strokeColor2=#0E7DAD;fontSize=12;fontColor=#ffffff;align=center;metaEdit=1;points=[[0.5,0,0],[1,0.25,0],[1,0.5,0],[1,0.75,0],[0.5,1,0],[0,0.75,0],[0,0.5,0],[0,0.25,0]];resizable=0;direction=east;" parent="1" vertex="1">
            <mxGeometry x="250" y="1169" width="240" height="160" as="geometry" />
          </mxCell>
        </object>
        <object placeholders="1" c4Name="API application" c4Type="Container" c4Technology="Java and Spring MVC" c4Description="Provides events viewing functionality via JSON/HTTPS API" label="&lt;font style=&quot;font-size: 16px&quot;&gt;&lt;b&gt;%c4Name%&lt;/b&gt;&lt;/font&gt;&lt;div&gt;[%c4Type%: %c4Technology%]&lt;/div&gt;&lt;br&gt;&lt;div&gt;&lt;font style=&quot;font-size: 11px&quot;&gt;&lt;font color=&quot;#E6E6E6&quot;&gt;%c4Description%&lt;/font&gt;&lt;/div&gt;" id="_VTtjqQ9TF57_BV2BsiT-31">
          <mxCell style="rounded=1;whiteSpace=wrap;html=1;fontSize=11;labelBackgroundColor=none;fillColor=#23A2D9;fontColor=#ffffff;align=center;arcSize=10;strokeColor=#0E7DAD;metaEdit=1;resizable=0;points=[[0.25,0,0],[0.5,0,0],[0.75,0,0],[1,0.25,0],[1,0.5,0],[1,0.75,0],[0.75,1,0],[0.5,1,0],[0.25,1,0],[0,0.75,0],[0,0.5,0],[0,0.25,0]];" parent="1" vertex="1">
            <mxGeometry x="450" y="1403" width="240" height="120" as="geometry" />
          </mxCell>
        </object>
        <object placeholders="1" c4Name="Database" c4Type="Container" c4Technology="MySQL" c4Description="Stores all the events" label="&lt;font style=&quot;font-size: 16px&quot;&gt;&lt;b&gt;%c4Name%&lt;/b&gt;&lt;/font&gt;&lt;div&gt;[%c4Type%:&amp;nbsp;%c4Technology%]&lt;/div&gt;&lt;br&gt;&lt;div&gt;&lt;font style=&quot;font-size: 11px&quot;&gt;&lt;font color=&quot;#E6E6E6&quot;&gt;%c4Description%&lt;/font&gt;&lt;/div&gt;" id="_VTtjqQ9TF57_BV2BsiT-33">
          <mxCell style="shape=cylinder3;size=15;whiteSpace=wrap;html=1;boundedLbl=1;rounded=0;labelBackgroundColor=none;fillColor=#23A2D9;fontSize=12;fontColor=#ffffff;align=center;strokeColor=#0E7DAD;metaEdit=1;points=[[0.5,0,0],[1,0.25,0],[1,0.5,0],[1,0.75,0],[0.5,1,0],[0,0.75,0],[0,0.5,0],[0,0.25,0]];resizable=0;" parent="1" vertex="1">
            <mxGeometry x="60" y="1403" width="240" height="120" as="geometry" />
          </mxCell>
        </object>
        <mxCell id="_VTtjqQ9TF57_BV2BsiT-36" value="" style="endArrow=classic;html=1;rounded=0;exitX=1;exitY=0.5;exitDx=0;exitDy=0;exitPerimeter=0;entryX=0.5;entryY=0;entryDx=0;entryDy=0;entryPerimeter=0;dashed=1;" parent="1" source="_VTtjqQ9TF57_BV2BsiT-30" target="_VTtjqQ9TF57_BV2BsiT-31" edge="1">
          <mxGeometry width="50" height="50" relative="1" as="geometry">
            <mxPoint x="390" y="1392" as="sourcePoint" />
            <mxPoint x="440" y="1342" as="targetPoint" />
            <Array as="points">
              <mxPoint x="570" y="1249" />
            </Array>
          </mxGeometry>
        </mxCell>
        <mxCell id="_VTtjqQ9TF57_BV2BsiT-37" value="&lt;font style=&quot;font-size: 14px;&quot;&gt;Makes API calls to&lt;/font&gt;&lt;div&gt;&lt;font style=&quot;font-size: 14px;&quot;&gt;[JSON/HTTP]&lt;/font&gt;&lt;/div&gt;" style="edgeLabel;html=1;align=center;verticalAlign=middle;resizable=0;points=[];" parent="_VTtjqQ9TF57_BV2BsiT-36" vertex="1" connectable="0">
          <mxGeometry x="0.2473" y="1" relative="1" as="geometry">
            <mxPoint x="-1" y="-15" as="offset" />
          </mxGeometry>
        </mxCell>
        <mxCell id="_VTtjqQ9TF57_BV2BsiT-38" value="" style="endArrow=classic;html=1;rounded=0;exitX=0;exitY=0.5;exitDx=0;exitDy=0;exitPerimeter=0;entryX=1;entryY=0.5;entryDx=0;entryDy=0;entryPerimeter=0;dashed=1;" parent="1" source="_VTtjqQ9TF57_BV2BsiT-31" edge="1">
          <mxGeometry width="50" height="50" relative="1" as="geometry">
            <mxPoint x="260" y="1632" as="sourcePoint" />
            <mxPoint x="300" y="1462" as="targetPoint" />
          </mxGeometry>
        </mxCell>
        <mxCell id="_VTtjqQ9TF57_BV2BsiT-39" value="&lt;font style=&quot;font-size: 14px;&quot;&gt;Reads from&amp;nbsp;&lt;/font&gt;&lt;div&gt;&lt;font style=&quot;font-size: 14px;&quot;&gt;and writes to&lt;/font&gt;&lt;/div&gt;&lt;div&gt;&lt;font style=&quot;font-size: 14px;&quot;&gt;[MySQL]&lt;/font&gt;&lt;/div&gt;" style="edgeLabel;html=1;align=center;verticalAlign=middle;resizable=0;points=[];" parent="_VTtjqQ9TF57_BV2BsiT-38" vertex="1" connectable="0">
          <mxGeometry x="-0.0857" relative="1" as="geometry">
            <mxPoint x="-6" as="offset" />
          </mxGeometry>
        </mxCell>
        <mxCell id="_VTtjqQ9TF57_BV2BsiT-40" value="" style="endArrow=classic;html=1;rounded=0;exitX=0.5;exitY=1;exitDx=0;exitDy=0;exitPerimeter=0;entryX=0.5;entryY=0;entryDx=0;entryDy=0;entryPerimeter=0;dashed=1;" parent="1" source="_VTtjqQ9TF57_BV2BsiT-19" target="_VTtjqQ9TF57_BV2BsiT-30" edge="1">
          <mxGeometry width="50" height="50" relative="1" as="geometry">
            <mxPoint x="870" y="1399" as="sourcePoint" />
            <mxPoint x="800" y="1029" as="targetPoint" />
          </mxGeometry>
        </mxCell>
        <mxCell id="_VTtjqQ9TF57_BV2BsiT-41" value="&lt;font style=&quot;font-size: 14px;&quot;&gt;Views events and statistics using&lt;/font&gt;" style="edgeLabel;html=1;align=center;verticalAlign=middle;resizable=0;points=[];" parent="_VTtjqQ9TF57_BV2BsiT-40" vertex="1" connectable="0">
          <mxGeometry x="-0.119" y="4" relative="1" as="geometry">
            <mxPoint as="offset" />
          </mxGeometry>
        </mxCell>
        <object placeholders="1" c4Name="Single page application" c4Type="Container" c4Technology="JavaScript and React" c4Description="Provides all of the platform functionality to customers via their browser " label="&lt;font style=&quot;font-size: 16px&quot;&gt;&lt;b&gt;%c4Name%&lt;/b&gt;&lt;/font&gt;&lt;div&gt;[%c4Type%:&amp;nbsp;%c4Technology%]&lt;/div&gt;&lt;br&gt;&lt;div&gt;&lt;font style=&quot;font-size: 11px&quot;&gt;&lt;font color=&quot;#E6E6E6&quot;&gt;%c4Description%&lt;/font&gt;&lt;/div&gt;" id="_VTtjqQ9TF57_BV2BsiT-42">
          <mxCell style="shape=mxgraph.c4.webBrowserContainer2;whiteSpace=wrap;html=1;boundedLbl=1;rounded=0;labelBackgroundColor=none;strokeColor=#118ACD;fillColor=#23A2D9;strokeColor=#118ACD;strokeColor2=#0E7DAD;fontSize=12;fontColor=#ffffff;align=center;metaEdit=1;points=[[0.5,0,0],[1,0.25,0],[1,0.5,0],[1,0.75,0],[0.5,1,0],[0,0.75,0],[0,0.5,0],[0,0.25,0]];resizable=0;direction=east;" parent="1" vertex="1">
            <mxGeometry x="140" y="1769" width="240" height="160" as="geometry" />
          </mxCell>
        </object>
        <object placeholders="1" c4Name="Database" c4Type="Container" c4Technology="MongoDB" c4Description="Stores all the events from the main website" label="&lt;font style=&quot;font-size: 16px&quot;&gt;&lt;b&gt;%c4Name%&lt;/b&gt;&lt;/font&gt;&lt;div&gt;[%c4Type%:&amp;nbsp;%c4Technology%]&lt;/div&gt;&lt;br&gt;&lt;div&gt;&lt;font style=&quot;font-size: 11px&quot;&gt;&lt;font color=&quot;#E6E6E6&quot;&gt;%c4Description%&lt;/font&gt;&lt;/div&gt;" id="_VTtjqQ9TF57_BV2BsiT-43">
          <mxCell style="shape=cylinder3;size=15;whiteSpace=wrap;html=1;boundedLbl=1;rounded=0;labelBackgroundColor=none;fillColor=#23A2D9;fontSize=12;fontColor=#ffffff;align=center;strokeColor=#0E7DAD;metaEdit=1;points=[[0.5,0,0],[1,0.25,0],[1,0.5,0],[1,0.75,0],[0.5,1,0],[0,0.75,0],[0,0.5,0],[0,0.25,0]];resizable=0;" parent="1" vertex="1">
            <mxGeometry x="140" y="2689" width="240" height="120" as="geometry" />
          </mxCell>
        </object>
        <object placeholders="1" c4Name="Events Controller" c4Type="Component" c4Technology="Spring Rest Controller" c4Description="Allows users to view all the events" label="&lt;font style=&quot;font-size: 16px&quot;&gt;&lt;b&gt;%c4Name%&lt;/b&gt;&lt;/font&gt;&lt;div&gt;[%c4Type%: %c4Technology%]&lt;/div&gt;&lt;br&gt;&lt;div&gt;&lt;font style=&quot;font-size: 11px&quot;&gt;%c4Description%&lt;/font&gt;&lt;/div&gt;" id="_VTtjqQ9TF57_BV2BsiT-45">
          <mxCell style="rounded=1;whiteSpace=wrap;html=1;labelBackgroundColor=none;fillColor=#63BEF2;fontColor=#ffffff;align=center;arcSize=6;strokeColor=#2086C9;metaEdit=1;resizable=0;points=[[0.25,0,0],[0.5,0,0],[0.75,0,0],[1,0.25,0],[1,0.5,0],[1,0.75,0],[0.75,1,0],[0.5,1,0],[0.25,1,0],[0,0.75,0],[0,0.5,0],[0,0.25,0]];" parent="1" vertex="1">
            <mxGeometry x="140" y="2059" width="240" height="120" as="geometry" />
          </mxCell>
        </object>
        <object placeholders="1" c4Name="Events Services" c4Type="Component" c4Technology="Spring service" c4Description="Provides functionality related to the business logic related to events" label="&lt;font style=&quot;font-size: 16px&quot;&gt;&lt;b&gt;%c4Name%&lt;/b&gt;&lt;/font&gt;&lt;div&gt;[%c4Type%: %c4Technology%]&lt;/div&gt;&lt;br&gt;&lt;div&gt;&lt;font style=&quot;font-size: 11px&quot;&gt;%c4Description%&lt;/font&gt;&lt;/div&gt;" id="_VTtjqQ9TF57_BV2BsiT-47">
          <mxCell style="rounded=1;whiteSpace=wrap;html=1;labelBackgroundColor=none;fillColor=#63BEF2;fontColor=#ffffff;align=center;arcSize=6;strokeColor=#2086C9;metaEdit=1;resizable=0;points=[[0.25,0,0],[0.5,0,0],[0.75,0,0],[1,0.25,0],[1,0.5,0],[1,0.75,0],[0.75,1,0],[0.5,1,0],[0.25,1,0],[0,0.75,0],[0,0.5,0],[0,0.25,0]];" parent="1" vertex="1">
            <mxGeometry x="140" y="2249" width="240" height="120" as="geometry" />
          </mxCell>
        </object>
        <object placeholders="1" c4Name="Events Repository" c4Type="Component" c4Technology="Spring Repository" c4Description="Provides functionality to read from and write to the database" label="&lt;font style=&quot;font-size: 16px&quot;&gt;&lt;b&gt;%c4Name%&lt;/b&gt;&lt;/font&gt;&lt;div&gt;[%c4Type%: %c4Technology%]&lt;/div&gt;&lt;br&gt;&lt;div&gt;&lt;font style=&quot;font-size: 11px&quot;&gt;%c4Description%&lt;/font&gt;&lt;/div&gt;" id="_VTtjqQ9TF57_BV2BsiT-48">
          <mxCell style="rounded=1;whiteSpace=wrap;html=1;labelBackgroundColor=none;fillColor=#63BEF2;fontColor=#ffffff;align=center;arcSize=6;strokeColor=#2086C9;metaEdit=1;resizable=0;points=[[0.25,0,0],[0.5,0,0],[0.75,0,0],[1,0.25,0],[1,0.5,0],[1,0.75,0],[0.75,1,0],[0.5,1,0],[0.25,1,0],[0,0.75,0],[0,0.5,0],[0,0.25,0]];" parent="1" vertex="1">
            <mxGeometry x="140" y="2439" width="240" height="120" as="geometry" />
          </mxCell>
        </object>
        <mxCell id="_VTtjqQ9TF57_BV2BsiT-49" value="" style="endArrow=classic;html=1;rounded=0;exitX=0.5;exitY=1;exitDx=0;exitDy=0;exitPerimeter=0;dashed=1;entryX=0.5;entryY=0;entryDx=0;entryDy=0;entryPerimeter=0;" parent="1" source="_VTtjqQ9TF57_BV2BsiT-47" target="_VTtjqQ9TF57_BV2BsiT-48" edge="1">
          <mxGeometry width="50" height="50" relative="1" as="geometry">
            <mxPoint x="257.9699999999998" y="2369" as="sourcePoint" />
            <mxPoint x="241" y="2412" as="targetPoint" />
          </mxGeometry>
        </mxCell>
        <mxCell id="_VTtjqQ9TF57_BV2BsiT-50" value="&lt;font style=&quot;font-size: 14px;&quot;&gt;Uses&lt;/font&gt;" style="edgeLabel;html=1;align=center;verticalAlign=middle;resizable=0;points=[];" parent="_VTtjqQ9TF57_BV2BsiT-49" vertex="1" connectable="0">
          <mxGeometry x="-0.1655" y="-2" relative="1" as="geometry">
            <mxPoint x="2" y="3" as="offset" />
          </mxGeometry>
        </mxCell>
        <mxCell id="_VTtjqQ9TF57_BV2BsiT-51" value="" style="endArrow=classic;html=1;rounded=0;exitX=0.5;exitY=1;exitDx=0;exitDy=0;exitPerimeter=0;entryX=0.5;entryY=0;entryDx=0;entryDy=0;entryPerimeter=0;dashed=1;" parent="1" source="_VTtjqQ9TF57_BV2BsiT-45" target="_VTtjqQ9TF57_BV2BsiT-47" edge="1">
          <mxGeometry width="50" height="50" relative="1" as="geometry">
            <mxPoint x="-80" y="2469" as="sourcePoint" />
            <mxPoint x="-30" y="2419" as="targetPoint" />
          </mxGeometry>
        </mxCell>
        <mxCell id="_VTtjqQ9TF57_BV2BsiT-53" value="&lt;font style=&quot;font-size: 14px;&quot;&gt;Uses&lt;/font&gt;" style="edgeLabel;html=1;align=center;verticalAlign=middle;resizable=0;points=[];" parent="_VTtjqQ9TF57_BV2BsiT-51" vertex="1" connectable="0">
          <mxGeometry x="-0.3929" y="-3" relative="1" as="geometry">
            <mxPoint x="3" y="9" as="offset" />
          </mxGeometry>
        </mxCell>
        <mxCell id="_VTtjqQ9TF57_BV2BsiT-56" value="" style="endArrow=classic;html=1;rounded=0;exitX=0.5;exitY=1;exitDx=0;exitDy=0;exitPerimeter=0;entryX=0.5;entryY=0;entryDx=0;entryDy=0;dashed=1;" parent="1" source="_VTtjqQ9TF57_BV2BsiT-42" target="_VTtjqQ9TF57_BV2BsiT-55" edge="1">
          <mxGeometry width="50" height="50" relative="1" as="geometry">
            <mxPoint y="2029" as="sourcePoint" />
            <mxPoint x="120" y="1969" as="targetPoint" />
          </mxGeometry>
        </mxCell>
        <mxCell id="_VTtjqQ9TF57_BV2BsiT-57" value="&lt;font style=&quot;font-size: 14px;&quot;&gt;Makes API calls to&lt;/font&gt;&lt;div&gt;&lt;font style=&quot;font-size: 14px;&quot;&gt;[JSON/HTTP]&lt;/font&gt;&lt;/div&gt;" style="edgeLabel;html=1;align=center;verticalAlign=middle;resizable=0;points=[];" parent="_VTtjqQ9TF57_BV2BsiT-56" vertex="1" connectable="0">
          <mxGeometry x="-0.1455" y="1" relative="1" as="geometry">
            <mxPoint as="offset" />
          </mxGeometry>
        </mxCell>
        <mxCell id="_VTtjqQ9TF57_BV2BsiT-58" value="" style="endArrow=classic;html=1;rounded=0;exitX=0.5;exitY=1;exitDx=0;exitDy=0;entryX=0.5;entryY=0;entryDx=0;entryDy=0;entryPerimeter=0;dashed=1;" parent="1" source="_VTtjqQ9TF57_BV2BsiT-55" target="_VTtjqQ9TF57_BV2BsiT-43" edge="1">
          <mxGeometry width="50" height="50" relative="1" as="geometry">
            <mxPoint x="-40" y="2299" as="sourcePoint" />
            <mxPoint x="10" y="2249" as="targetPoint" />
          </mxGeometry>
        </mxCell>
        <mxCell id="_VTtjqQ9TF57_BV2BsiT-59" value="&lt;font style=&quot;font-size: 14px;&quot;&gt;Reads from and writes to&lt;/font&gt;&lt;div&gt;&lt;font style=&quot;font-size: 14px;&quot;&gt;[JDBC]&lt;/font&gt;&lt;/div&gt;" style="edgeLabel;html=1;align=center;verticalAlign=middle;resizable=0;points=[];" parent="_VTtjqQ9TF57_BV2BsiT-58" vertex="1" connectable="0">
          <mxGeometry x="0.2229" y="4" relative="1" as="geometry">
            <mxPoint x="-4" y="-8" as="offset" />
          </mxGeometry>
        </mxCell>
        <mxCell id="_VTtjqQ9TF57_BV2BsiT-60" value="" style="endArrow=classic;html=1;rounded=0;exitX=0.25;exitY=1;exitDx=0;exitDy=0;entryX=1;entryY=0.5;entryDx=0;entryDy=0;dashed=1;exitPerimeter=0;" parent="1" target="_VTtjqQ9TF57_BV2BsiT-55" edge="1" source="_VTtjqQ9TF57_BV2BsiT-31">
          <mxGeometry width="50" height="50" relative="1" as="geometry">
            <mxPoint x="545" y="1549" as="sourcePoint" />
            <mxPoint x="230" y="1859" as="targetPoint" />
            <Array as="points">
              <mxPoint x="510" y="2309" />
            </Array>
          </mxGeometry>
        </mxCell>
        <mxCell id="JWRWBswW9QX8F1soIHpN-3" value="" style="rounded=1;whiteSpace=wrap;html=1;strokeWidth=5;fillColor=none;strokeColor=#FF0000;" vertex="1" parent="1">
          <mxGeometry x="230" y="1150" width="280" height="190" as="geometry" />
        </mxCell>
        <mxCell id="JWRWBswW9QX8F1soIHpN-4" value="" style="endArrow=classic;html=1;rounded=0;exitX=1;exitY=0.25;exitDx=0;exitDy=0;exitPerimeter=0;dashed=1;entryX=0.005;entryY=0.174;entryDx=0;entryDy=0;entryPerimeter=0;" edge="1" parent="1" source="_VTtjqQ9TF57_BV2BsiT-30" target="JWRWBswW9QX8F1soIHpN-20">
          <mxGeometry width="50" height="50" relative="1" as="geometry">
            <mxPoint x="870.952380952381" y="1300" as="sourcePoint" />
            <mxPoint x="1260" y="1210" as="targetPoint" />
          </mxGeometry>
        </mxCell>
        <object placeholders="1" c4Name="API application" c4Type="Container" c4Technology="Java and Spring MVC" c4Description="Provides events viewing functionality via JSON/HTTPS API" label="&lt;font style=&quot;font-size: 16px&quot;&gt;&lt;b&gt;%c4Name%&lt;/b&gt;&lt;/font&gt;&lt;div&gt;[%c4Type%: %c4Technology%]&lt;/div&gt;&lt;br&gt;&lt;div&gt;&lt;font style=&quot;font-size: 11px&quot;&gt;&lt;font color=&quot;#E6E6E6&quot;&gt;%c4Description%&lt;/font&gt;&lt;/div&gt;" id="JWRWBswW9QX8F1soIHpN-6">
          <mxCell style="rounded=1;whiteSpace=wrap;html=1;fontSize=11;labelBackgroundColor=none;fillColor=#23A2D9;fontColor=#ffffff;align=center;arcSize=10;strokeColor=#0E7DAD;metaEdit=1;resizable=0;points=[[0.25,0,0],[0.5,0,0],[0.75,0,0],[1,0.25,0],[1,0.5,0],[1,0.75,0],[0.75,1,0],[0.5,1,0],[0.25,1,0],[0,0.75,0],[0,0.5,0],[0,0.25,0]];" vertex="1" parent="1">
            <mxGeometry x="1150" y="1830" width="240" height="120" as="geometry" />
          </mxCell>
        </object>
        <object placeholders="1" c4Name="Employee" c4Type="Person" c4Description="Employee of BAS world" label="&lt;font style=&quot;font-size: 16px&quot;&gt;&lt;b&gt;%c4Name%&lt;/b&gt;&lt;/font&gt;&lt;div&gt;[%c4Type%]&lt;/div&gt;&lt;br&gt;&lt;div&gt;&lt;font style=&quot;font-size: 11px&quot;&gt;&lt;font color=&quot;#cccccc&quot;&gt;%c4Description%&lt;/font&gt;&lt;/div&gt;" id="JWRWBswW9QX8F1soIHpN-7">
          <mxCell style="html=1;fontSize=11;dashed=0;whiteSpace=wrap;fillColor=#083F75;strokeColor=#06315C;fontColor=#ffffff;shape=mxgraph.c4.person2;align=center;metaEdit=1;points=[[0.5,0,0],[1,0.5,0],[1,0.75,0],[0.75,1,0],[0.5,1,0],[0.25,1,0],[0,0.75,0],[0,0.5,0]];resizable=0;" vertex="1" parent="1">
            <mxGeometry x="1170" y="810" width="200" height="180" as="geometry" />
          </mxCell>
        </object>
        <object placeholders="1" c4Name="Events Controller" c4Type="Component" c4Technology="React component" c4Description="Accesses backend to get all the events" label="&lt;font style=&quot;font-size: 16px&quot;&gt;&lt;b&gt;%c4Name%&lt;/b&gt;&lt;/font&gt;&lt;div&gt;[%c4Type%: %c4Technology%]&lt;/div&gt;&lt;br&gt;&lt;div&gt;&lt;font style=&quot;font-size: 11px&quot;&gt;%c4Description%&lt;/font&gt;&lt;/div&gt;" id="JWRWBswW9QX8F1soIHpN-8">
          <mxCell style="rounded=1;whiteSpace=wrap;html=1;labelBackgroundColor=none;fillColor=#63BEF2;fontColor=#ffffff;align=center;arcSize=6;strokeColor=#2086C9;metaEdit=1;resizable=0;points=[[0.25,0,0],[0.5,0,0],[0.75,0,0],[1,0.25,0],[1,0.5,0],[1,0.75,0],[0.75,1,0],[0.5,1,0],[0.25,1,0],[0,0.75,0],[0,0.5,0],[0,0.25,0]];" vertex="1" parent="1">
            <mxGeometry x="1150" y="1544" width="240" height="120" as="geometry" />
          </mxCell>
        </object>
        <object placeholders="1" c4Name="Graphic components" c4Type="Component" c4Technology="React components" c4Description="Show all the data on the website" label="&lt;font style=&quot;font-size: 16px&quot;&gt;&lt;b&gt;%c4Name%&lt;/b&gt;&lt;/font&gt;&lt;div&gt;[%c4Type%: %c4Technology%]&lt;/div&gt;&lt;br&gt;&lt;div&gt;&lt;font style=&quot;font-size: 11px&quot;&gt;%c4Description%&lt;/font&gt;&lt;/div&gt;" id="JWRWBswW9QX8F1soIHpN-9">
          <mxCell style="rounded=1;whiteSpace=wrap;html=1;labelBackgroundColor=none;fillColor=#63BEF2;fontColor=#ffffff;align=center;arcSize=6;strokeColor=#2086C9;metaEdit=1;resizable=0;points=[[0.25,0,0],[0.5,0,0],[0.75,0,0],[1,0.25,0],[1,0.5,0],[1,0.75,0],[0.75,1,0],[0.5,1,0],[0.25,1,0],[0,0.75,0],[0,0.5,0],[0,0.25,0]];" vertex="1" parent="1">
            <mxGeometry x="1150" y="1339" width="240" height="120" as="geometry" />
          </mxCell>
        </object>
        <object placeholders="1" c4Name="Main page" c4Type="Component" c4Technology="React component" c4Description="Renders components and allows user to manage them" label="&lt;font style=&quot;font-size: 16px&quot;&gt;&lt;b&gt;%c4Name%&lt;/b&gt;&lt;/font&gt;&lt;div&gt;[%c4Type%: %c4Technology%]&lt;/div&gt;&lt;br&gt;&lt;div&gt;&lt;font style=&quot;font-size: 11px&quot;&gt;%c4Description%&lt;/font&gt;&lt;/div&gt;" id="JWRWBswW9QX8F1soIHpN-10">
          <mxCell style="rounded=1;whiteSpace=wrap;html=1;labelBackgroundColor=none;fillColor=#63BEF2;fontColor=#ffffff;align=center;arcSize=6;strokeColor=#2086C9;metaEdit=1;resizable=0;points=[[0.25,0,0],[0.5,0,0],[0.75,0,0],[1,0.25,0],[1,0.5,0],[1,0.75,0],[0.75,1,0],[0.5,1,0],[0.25,1,0],[0,0.75,0],[0,0.5,0],[0,0.25,0]];" vertex="1" parent="1">
            <mxGeometry x="1150" y="1140" width="240" height="120" as="geometry" />
          </mxCell>
        </object>
        <mxCell id="JWRWBswW9QX8F1soIHpN-11" value="" style="endArrow=classic;html=1;rounded=0;exitX=0.5;exitY=1;exitDx=0;exitDy=0;exitPerimeter=0;entryX=0.5;entryY=0;entryDx=0;entryDy=0;entryPerimeter=0;dashed=1;" edge="1" parent="1" source="JWRWBswW9QX8F1soIHpN-10" target="JWRWBswW9QX8F1soIHpN-9">
          <mxGeometry width="50" height="50" relative="1" as="geometry">
            <mxPoint x="1020" y="1480" as="sourcePoint" />
            <mxPoint x="1070" y="1430" as="targetPoint" />
          </mxGeometry>
        </mxCell>
        <mxCell id="JWRWBswW9QX8F1soIHpN-12" value="Uses" style="edgeLabel;html=1;align=center;verticalAlign=middle;resizable=0;points=[];" vertex="1" connectable="0" parent="JWRWBswW9QX8F1soIHpN-11">
          <mxGeometry x="-0.4747" y="-1" relative="1" as="geometry">
            <mxPoint x="1" y="9" as="offset" />
          </mxGeometry>
        </mxCell>
        <mxCell id="JWRWBswW9QX8F1soIHpN-13" value="" style="endArrow=classic;html=1;rounded=0;exitX=0.5;exitY=1;exitDx=0;exitDy=0;exitPerimeter=0;entryX=0.5;entryY=0;entryDx=0;entryDy=0;entryPerimeter=0;dashed=1;" edge="1" parent="1" source="JWRWBswW9QX8F1soIHpN-9" target="JWRWBswW9QX8F1soIHpN-8">
          <mxGeometry width="50" height="50" relative="1" as="geometry">
            <mxPoint x="950" y="1480" as="sourcePoint" />
            <mxPoint x="1000" y="1430" as="targetPoint" />
          </mxGeometry>
        </mxCell>
        <mxCell id="JWRWBswW9QX8F1soIHpN-14" value="Uses" style="edgeLabel;html=1;align=center;verticalAlign=middle;resizable=0;points=[];" vertex="1" connectable="0" parent="JWRWBswW9QX8F1soIHpN-13">
          <mxGeometry x="-0.15" y="-2" relative="1" as="geometry">
            <mxPoint as="offset" />
          </mxGeometry>
        </mxCell>
        <mxCell id="JWRWBswW9QX8F1soIHpN-16" value="" style="endArrow=classic;html=1;rounded=0;exitX=0.5;exitY=1;exitDx=0;exitDy=0;exitPerimeter=0;" edge="1" parent="1" source="JWRWBswW9QX8F1soIHpN-8" target="JWRWBswW9QX8F1soIHpN-6">
          <mxGeometry width="50" height="50" relative="1" as="geometry">
            <mxPoint x="810" y="1440" as="sourcePoint" />
            <mxPoint x="860" y="1390" as="targetPoint" />
          </mxGeometry>
        </mxCell>
        <mxCell id="JWRWBswW9QX8F1soIHpN-17" value="&lt;font style=&quot;font-size: 14px;&quot;&gt;Makes API calls to&lt;/font&gt;&lt;div&gt;&lt;font style=&quot;font-size: 14px;&quot;&gt;[JSON/HTTP]&lt;/font&gt;&lt;/div&gt;" style="edgeLabel;html=1;align=center;verticalAlign=middle;resizable=0;points=[];" vertex="1" connectable="0" parent="JWRWBswW9QX8F1soIHpN-16">
          <mxGeometry x="0.1205" y="-2" relative="1" as="geometry">
            <mxPoint x="2" y="-7" as="offset" />
          </mxGeometry>
        </mxCell>
        <mxCell id="JWRWBswW9QX8F1soIHpN-18" value="" style="endArrow=classic;html=1;rounded=0;entryX=0.5;entryY=0;entryDx=0;entryDy=0;entryPerimeter=0;exitX=0.5;exitY=1;exitDx=0;exitDy=0;exitPerimeter=0;dashed=1;" edge="1" parent="1" source="JWRWBswW9QX8F1soIHpN-7" target="JWRWBswW9QX8F1soIHpN-10">
          <mxGeometry width="50" height="50" relative="1" as="geometry">
            <mxPoint x="860" y="1030" as="sourcePoint" />
            <mxPoint x="910" y="980" as="targetPoint" />
          </mxGeometry>
        </mxCell>
        <mxCell id="JWRWBswW9QX8F1soIHpN-19" value="&lt;span style=&quot;font-size: 14px;&quot;&gt;Views events and statistics using&lt;/span&gt;" style="edgeLabel;html=1;align=center;verticalAlign=middle;resizable=0;points=[];" vertex="1" connectable="0" parent="JWRWBswW9QX8F1soIHpN-18">
          <mxGeometry x="0.0622" y="-2" relative="1" as="geometry">
            <mxPoint as="offset" />
          </mxGeometry>
        </mxCell>
        <mxCell id="JWRWBswW9QX8F1soIHpN-20" value="" style="rounded=1;whiteSpace=wrap;html=1;strokeWidth=5;fillColor=none;strokeColor=#FF0000;" vertex="1" parent="1">
          <mxGeometry x="1130" y="1110" width="280" height="580" as="geometry" />
        </mxCell>
      </root>
    </mxGraphModel>
  </diagram>
</mxfile>
